<svg width="19" height="16" viewBox="0 0 19 16" fill="none" xmlns="http://www.w3.org/2000/svg">
<path d="M17.4033 9C17.9556 9 18.4033 8.55228 18.4033 8C18.4033 7.44772 17.9556 7 17.4033 7V9ZM0.696213 7.29289C0.305689 7.68342 0.305689 8.31658 0.696213 8.70711L7.06017 15.0711C7.4507 15.4616 8.08386 15.4616 8.47439 15.0711C8.86491 14.6805 8.86491 14.0474 8.47439 13.6569L2.81753 8L8.47439 2.34315C8.86491 1.95262 8.86491 1.31946 8.47439 0.928932C8.08386 0.538408 7.4507 0.538408 7.06017 0.928932L0.696213 7.29289ZM17.4033 7L1.40332 7V9L17.4033 9V7Z" fill="#718EBF"/>
</svg>
