<svg width="21" height="23" viewBox="0 0 21 23" fill="none" xmlns="http://www.w3.org/2000/svg">
<path fill-rule="evenodd" clip-rule="evenodd" d="M0.786748 7.96705C0.343192 8.34701 0.0878906 8.90189 0.0878906 9.48594V20.5657C0.0878906 21.6703 0.983322 22.5657 2.08789 22.5657H5.59668C6.14896 22.5657 6.59668 22.118 6.59668 21.5657V15.9997C6.59668 14.8951 7.49211 13.9997 8.59668 13.9997H11.5967C12.7012 13.9997 13.5967 14.8951 13.5967 15.9997V21.5657C13.5967 22.118 14.0444 22.5657 14.5967 22.5657H18.0879C19.1925 22.5657 20.0879 21.6703 20.0879 20.5657V9.48594C20.0879 8.90189 19.8326 8.34702 19.389 7.96705L11.389 1.11392C10.6402 0.472442 9.53558 0.472443 8.78675 1.11392L0.786748 7.96705Z" fill="#718EBF"/>
</svg>
