<svg width="28" height="28" viewBox="0 0 28 28" fill="none" xmlns="http://www.w3.org/2000/svg">
<g id="icon_28">
<path id="Subtract" fill-rule="evenodd" clip-rule="evenodd" d="M11.0001 4C11.0001 3.44772 11.4478 3 12.0001 3H16.0001C16.5524 3 17.0001 3.44772 17.0001 4V6.58152C17.7706 6.8934 18.4814 7.32184 19.1108 7.84496L21.3587 6.54712C21.837 6.27098 22.4486 6.43485 22.7247 6.91314L24.4996 9.98725C24.7757 10.4655 24.6118 11.0771 24.1335 11.3533L21.8868 12.6504C21.9613 13.0892 22.0001 13.5401 22.0001 14C22.0001 14.4599 21.9613 14.9108 21.8868 15.3495L24.1341 16.647C24.6124 16.9231 24.7763 17.5347 24.5001 18.013L22.7253 21.0871C22.4491 21.5654 21.8375 21.7293 21.3593 21.4531L19.1108 20.155C18.4815 20.6781 17.7706 21.1066 17.0001 21.4185V24C17.0001 24.5523 16.5524 25 16.0001 25H12.0001C11.4478 25 11.0001 24.5523 11.0001 24V21.4185C10.2295 21.1065 9.51847 20.678 8.88904 20.1547L6.64097 21.4526C6.16268 21.7288 5.55108 21.5649 5.27494 21.0866L3.50011 18.0125C3.22397 17.5342 3.38784 16.9226 3.86613 16.6465L6.11338 15.349C6.0389 14.9105 6.00012 14.4598 6.00012 14C6.00012 13.5402 6.03891 13.0895 6.11339 12.6509L3.86669 11.3538C3.3884 11.0776 3.22452 10.4661 3.50067 9.98776L5.2755 6.91366C5.55164 6.43536 6.16323 6.27149 6.64153 6.54763L8.88909 7.84527C9.51851 7.322 10.2295 6.89346 11.0001 6.58152V4ZM14.0001 19C16.7615 19 19.0001 16.7614 19.0001 14C19.0001 11.2386 16.7615 9 14.0001 9C11.2387 9 9.00012 11.2386 9.00012 14C9.00012 16.7614 11.2387 19 14.0001 19Z" fill="#111215"/>
</g>
</svg>
