<svg width="45" height="46" viewBox="0 0 45 46" fill="none" xmlns="http://www.w3.org/2000/svg">
<circle cx="22.5967" cy="23" r="21" fill="#F5F7FA"/>
<circle cx="22.5967" cy="23" r="21.7" stroke="#718EBF" stroke-opacity="0.2" stroke-width="1.4"/>
<g clip-path="url(#clip0_172_8885)">
<path d="M22.836 33.0801H21.518C20.452 33.0801 19.5848 32.2128 19.5848 31.1469V30.701C19.1316 30.5562 18.6913 30.3735 18.2683 30.1546L17.9523 30.4705C17.187 31.2368 15.9611 31.2143 15.218 30.4703L14.2865 29.5388C13.5421 28.7952 13.5207 27.5697 14.2867 26.8045L14.6025 26.4887C14.3836 26.0658 14.2009 25.6255 14.056 25.1723H13.6102C12.5443 25.1723 11.677 24.305 11.677 23.2391V21.9211C11.677 20.8551 12.5443 19.9879 13.6102 19.9879H14.0561C14.2009 19.5347 14.3836 19.0944 14.6025 18.6714L14.2865 18.3555C13.5209 17.5907 13.5421 16.3651 14.2868 15.6212L15.2184 14.6896C15.9632 13.9438 17.1888 13.9252 17.9526 14.6899L18.2683 15.0056C18.6913 14.7867 19.1316 14.6039 19.5848 14.4591V14.0133C19.5848 12.9473 20.452 12.0801 21.518 12.0801H22.836C23.902 12.0801 24.7692 12.9473 24.7692 14.0133V14.4591C25.2224 14.6039 25.6627 14.7867 26.0857 15.0056L26.4017 14.6896C27.167 13.9234 28.3929 13.9458 29.136 14.6899L30.0675 15.6214C30.8119 16.3649 30.8333 17.5904 30.0672 18.3557L29.7515 18.6714C29.9704 19.0944 30.1531 19.5346 30.2979 19.9879H30.7438C31.8097 19.9879 32.677 20.8551 32.677 21.9211V23.2391C32.677 24.305 31.8097 25.1723 30.7438 25.1723H30.2979C30.1531 25.6255 29.9704 26.0658 29.7515 26.4887L30.0675 26.8047C30.8331 27.5695 30.8119 28.7951 30.0672 29.539L29.1356 30.4706C28.3908 31.2164 27.1652 31.235 26.4014 30.4703L26.0857 30.1546C25.6627 30.3735 25.2224 30.5563 24.7692 30.7011V31.147C24.7692 32.2128 23.902 33.0801 22.836 33.0801ZM18.474 28.8624C19.0616 29.21 19.6941 29.4725 20.3538 29.6428C20.6255 29.7129 20.8153 29.9579 20.8153 30.2385V31.1469C20.8153 31.5344 21.1306 31.8496 21.518 31.8496H22.836C23.2235 31.8496 23.5388 31.5344 23.5388 31.1469V30.2385C23.5388 29.9579 23.7286 29.7129 24.0003 29.6428C24.66 29.4725 25.2924 29.21 25.8801 28.8624C26.1218 28.7195 26.4297 28.7583 26.6283 28.957L27.2718 29.6005C27.5492 29.8782 27.9947 29.8718 28.2653 29.6008L29.1975 28.6686C29.4674 28.399 29.4765 27.9534 29.1977 27.675L28.554 27.0313C28.3554 26.8327 28.3165 26.5248 28.4594 26.2831C28.807 25.6955 29.0695 25.063 29.2397 24.4033C29.3099 24.1316 29.5549 23.9418 29.8354 23.9418H30.7438C31.1313 23.9418 31.4466 23.6266 31.4466 23.2391V21.9211C31.4466 21.5336 31.1313 21.2184 30.7438 21.2184H29.8354C29.5549 21.2184 29.3099 21.0286 29.2397 20.7569C29.0695 20.0972 28.8069 19.4647 28.4594 18.8771C28.3165 18.6354 28.3554 18.3275 28.554 18.1289L29.1975 17.4854C29.4756 17.2076 29.4684 16.7622 29.1977 16.4918L28.2656 15.5598C27.9955 15.2892 27.5499 15.2813 27.272 15.5595L26.6283 16.2033C26.4297 16.4019 26.1218 16.4408 25.8801 16.2978C25.2925 15.9503 24.66 15.6877 24.0003 15.5175C23.7286 15.4474 23.5388 15.2024 23.5388 14.9218V14.0133C23.5388 13.6258 23.2235 13.3105 22.836 13.3105H21.5181C21.1306 13.3105 20.8153 13.6258 20.8153 14.0133V14.9217C20.8153 15.2023 20.6255 15.4473 20.3538 15.5174C19.6941 15.6876 19.0617 15.9502 18.474 16.2977C18.2322 16.4407 17.9244 16.4018 17.7258 16.2032L17.0823 15.5597C16.8049 15.2819 16.3593 15.2884 16.0888 15.5594L15.1566 16.4915C14.8866 16.7612 14.8776 17.2067 15.1564 17.4851L15.8001 18.1289C15.9987 18.3275 16.0376 18.6353 15.8946 18.8771C15.5471 19.4647 15.2846 20.0971 15.1144 20.7569C15.0442 21.0285 14.7992 21.2183 14.5186 21.2183H13.6102C13.2228 21.2184 12.9075 21.5336 12.9075 21.9211V23.2391C12.9075 23.6265 13.2228 23.9418 13.6102 23.9418H14.5186C14.7992 23.9418 15.0442 24.1316 15.1143 24.4033C15.2846 25.063 15.5471 25.6955 15.8946 26.2831C16.0375 26.5248 15.9987 26.8327 15.8001 27.0313L15.1566 27.6748C14.8784 27.9526 14.8857 28.398 15.1563 28.6684L16.0884 29.6004C16.3586 29.871 16.8042 29.8789 17.082 29.6007L17.7257 28.9569C17.872 28.8106 18.1765 28.6865 18.474 28.8624Z" fill="#718EBF"/>
<path d="M22.1771 27.149C19.6576 27.149 17.6079 25.0993 17.6079 22.5799C17.6079 20.0605 19.6576 18.0107 22.1771 18.0107C24.6965 18.0107 26.7462 20.0605 26.7462 22.5799C26.7462 25.0993 24.6965 27.149 22.1771 27.149ZM22.1771 19.2412C20.3361 19.2412 18.8384 20.7389 18.8384 22.5799C18.8384 24.4208 20.3361 25.9186 22.1771 25.9186C24.018 25.9186 25.5157 24.4208 25.5157 22.5799C25.5157 20.7389 24.018 19.2412 22.1771 19.2412Z" fill="#718EBF"/>
</g>
<defs>
<clipPath id="clip0_172_8885">
<rect width="21" height="21" fill="white" transform="translate(11.677 12.0801)"/>
</clipPath>
</defs>
</svg>
