<svg width="28" height="28" viewBox="0 0 28 28" fill="none" xmlns="http://www.w3.org/2000/svg">
<path fill-rule="evenodd" clip-rule="evenodd" d="M11 4C11 3.44772 11.4478 3 12 3H16C16.5523 3 17 3.44772 17 4V6.58152C17.7708 6.89351 18.4818 7.32212 19.1113 7.84548L21.3606 6.54688C21.8389 6.27073 22.4505 6.43461 22.7266 6.9129L24.5014 9.987C24.7776 10.4653 24.6137 11.0769 24.1354 11.353L21.8868 12.6513C21.9613 13.0897 22 13.5403 22 14C22 14.4599 21.9612 14.9108 21.8867 15.3495L24.134 16.647C24.6123 16.9231 24.7762 17.5347 24.5 18.013L22.7252 21.0871C22.4491 21.5654 21.8375 21.7293 21.3592 21.4531L19.1108 20.155C18.4814 20.6781 17.7706 21.1066 17 21.4185V24C17 24.5523 16.5523 25 16 25H12C11.4478 25 11 24.5523 11 24V21.4185C10.2296 21.1066 9.51888 20.6783 8.8896 20.1552L6.64285 21.4524C6.16456 21.7285 5.55297 21.5646 5.27683 21.0863L3.50199 18.0122C3.22585 17.5339 3.38973 16.9224 3.86802 16.6462L6.11344 15.3498C6.03888 14.911 6.00005 14.46 6.00005 14C6.00005 13.5402 6.03884 13.0895 6.11332 12.6509L3.86662 11.3538C3.38833 11.0776 3.22445 10.4661 3.5006 9.98776L5.27543 6.91366C5.55157 6.43536 6.16316 6.27149 6.64146 6.54763L8.88903 7.84527C9.51845 7.322 10.2294 6.89346 11 6.58152V4ZM14 19C16.7615 19 19 16.7614 19 14C19 11.2386 16.7615 9 14 9C11.2386 9 9.00005 11.2386 9.00005 14C9.00005 16.7614 11.2386 19 14 19Z" fill="#747E91"/>
</svg>
