<svg width="18" height="18" viewBox="0 0 18 18" fill="none" xmlns="http://www.w3.org/2000/svg">
<path d="M17.2846 15.9362L13.4193 12.0709C14.3774 10.9028 14.9549 9.40656 14.9549 7.77578C14.9549 4.03516 11.9197 1 8.1791 1C4.4352 1 1.40332 4.03516 1.40332 7.77578C1.40332 11.5164 4.4352 14.5516 8.1791 14.5516C9.80988 14.5516 11.3029 13.9773 12.471 13.0192L16.3363 16.8812C16.5988 17.1437 17.0221 17.1437 17.2846 16.8812C17.5471 16.622 17.5471 16.1955 17.2846 15.9362ZM8.1791 13.203C5.18332 13.203 2.74863 10.7683 2.74863 7.77578C2.74863 4.78328 5.18332 2.34531 8.1791 2.34531C11.1716 2.34531 13.6096 4.78328 13.6096 7.77578C13.6096 10.7683 11.1716 13.203 8.1791 13.203Z" fill="#718EBF" stroke="#718EBF"/>
</svg>
